<svg xmlns="http://www.w3.org/2000/svg" xmlns:xlink="http://www.w3.org/1999/xlink" viewBox="0 0 48 48" width="48" height="48" preserveAspectRatio="xMidYMid meet" style="width: 100%; height: 100%; transform: translate3d(0px, 0px, 0px); content-visibility: visible;"><defs><clipPath id="__lottie_element_1576"><rect width="48" height="48" x="0" y="0"></rect></clipPath></defs><g clip-path="url(#__lottie_element_1576)"><g transform="matrix(1,0,0,1,0,-0.8120002746582031)" opacity="1" style="display: block;"><g opacity="1" transform="matrix(1,0,0,1,22.94700050354004,32.402000427246094)"><path fill="rgb(255,255,255)" fill-opacity="1" d=" M11.704000473022461,-6.546999931335449 C11.704000473022461,-6.546999931335449 11.704000473022461,-0.38100001215934753 11.704000473022461,-0.38100001215934753 C11.704000473022461,2.23799991607666 10.571999549865723,4.729000091552734 8.597999572753906,6.452000141143799 C8.597999572753906,6.452000141143799 6.190999984741211,8.552000045776367 6.190999984741211,8.552000045776367 C6.190999984741211,8.552000045776367 -6.164999961853027,8.552000045776367 -6.164999961853027,8.552000045776367 C-6.164999961853027,8.552000045776367 -8.581000328063965,6.453000068664551 -8.581000328063965,6.453000068664551 C-10.564000129699707,4.730000019073486 -11.704000473022461,2.2320001125335693 -11.704000473022461,-0.39399999380111694 C-11.704000473022461,-0.39399999380111694 -11.704000473022461,-6.546999931335449 -11.704000473022461,-6.546999931335449 C-11.704000473022461,-7.6539998054504395 -10.805999755859375,-8.552000045776367 -9.699000358581543,-8.552000045776367 C-9.699000358581543,-8.552000045776367 9.699000358581543,-8.552000045776367 9.699000358581543,-8.552000045776367 C10.805999755859375,-8.552000045776367 11.704000473022461,-7.6539998054504395 11.704000473022461,-6.546999931335449z"></path><path stroke-linecap="round" stroke-linejoin="round" fill-opacity="0" stroke="rgb(83,109,254)" stroke-opacity="1" stroke-width="1" d=" M11.704000473022461,-6.546999931335449 C11.704000473022461,-6.546999931335449 11.704000473022461,-0.38100001215934753 11.704000473022461,-0.38100001215934753 C11.704000473022461,2.23799991607666 10.571999549865723,4.729000091552734 8.597999572753906,6.452000141143799 C8.597999572753906,6.452000141143799 6.190999984741211,8.552000045776367 6.190999984741211,8.552000045776367 C6.190999984741211,8.552000045776367 -6.164999961853027,8.552000045776367 -6.164999961853027,8.552000045776367 C-6.164999961853027,8.552000045776367 -8.581000328063965,6.453000068664551 -8.581000328063965,6.453000068664551 C-10.564000129699707,4.730000019073486 -11.704000473022461,2.2320001125335693 -11.704000473022461,-0.39399999380111694 C-11.704000473022461,-0.39399999380111694 -11.704000473022461,-6.546999931335449 -11.704000473022461,-6.546999931335449 C-11.704000473022461,-7.6539998054504395 -10.805999755859375,-8.552000045776367 -9.699000358581543,-8.552000045776367 C-9.699000358581543,-8.552000045776367 9.699000358581543,-8.552000045776367 9.699000358581543,-8.552000045776367 C10.805999755859375,-8.552000045776367 11.704000473022461,-7.6539998054504395 11.704000473022461,-6.546999931335449z"></path></g><g opacity="1" transform="matrix(1,0,0,1,0,0)"><path fill="rgb(255,255,255)" fill-opacity="1" d=" M9.059000015258789,40.95500183105469 C9.059000015258789,40.95500183105469 36.834999084472656,40.95500183105469 36.834999084472656,40.95500183105469 C36.834999084472656,40.95500183105469 9.059000015258789,40.95500183105469 9.059000015258789,40.95500183105469z"></path></g></g><g transform="matrix(1,0,0,1,0,-0.8120002746582031)" opacity="1" style="display: none;"><g opacity="1" transform="matrix(1,0,0,1,37.529998779296875,30.513999938964844)"><path stroke-linecap="round" stroke-linejoin="round" fill-opacity="0" stroke="rgb(83,109,254)" stroke-opacity="1" stroke-width="1" d=" M-3.4142608642578125,-4.992000102996826 C-3.4142608642578125,-4.992000102996826 -3.0712199211120605,-4.992000102996826 -3.0712199211120605,-4.992000102996826 C-2.425600290298462,-4.992000102996826 -1.9014796018600464,-2.756999969482422 -1.9014796018600464,0 C-1.9014796018600464,2.756999969482422 -2.425600290298462,4.992000102996826 -3.0712199211120605,4.992000102996826 C-3.0712199211120605,4.992000102996826 -3.578000068664551,4.992000102996826 -3.578000068664551,4.992000102996826"></path></g></g><g transform="matrix(1,0,0,1,0,0)" opacity="1" style="display: block;"><g opacity="1" transform="matrix(1,0,0,1,0,0)"><path stroke-linecap="round" stroke-linejoin="round" fill-opacity="0" stroke="rgb(83,109,254)" stroke-opacity="1" stroke-width="1" d=" M9.057999610900879,40.95500183105469 C9.057999610900879,40.95500183105469 36.834999084472656,40.95500183105469 36.834999084472656,40.95500183105469"></path></g></g><g transform="matrix(1,0,0,1,0,0)" opacity="1" style="display: block;"><g opacity="1" transform="matrix(1,0,0,1,26.47100067138672,11.954000473022461)"><path stroke-linecap="round" stroke-linejoin="round" fill-opacity="0" stroke="rgb(83,109,254)" stroke-opacity="1" stroke-width="1" d=" M-0.30000001192092896,-4.955999851226807 C-0.30000001192092896,-4.955999851226807 0.4959999918937683,-3.7780001163482666 0.4959999918937683,-3.7780001163482666 C1.1920000314712524,-2.75 1.1549999713897705,-1.5269999504089355 0.4000000059604645,-0.5230000019073486 C0.4000000059604645,-0.5230000019073486 -0.32499998807907104,0.4390000104904175 -0.32499998807907104,0.4390000104904175 C-1.1649999618530273,1.5570000410079956 -1.1920000314712524,2.9189999103546143 -0.3959999978542328,4.054999828338623 C-0.3959999978542328,4.054999828338623 0.23600000143051147,4.955999851226807 0.23600000143051147,4.955999851226807"></path></g><g opacity="1" transform="matrix(1,0,0,1,19.40399932861328,11.954000473022461)"><path stroke-linecap="round" stroke-linejoin="round" fill-opacity="0" stroke="rgb(83,109,254)" stroke-opacity="1" stroke-width="1" d=" M-0.30000001192092896,-4.955999851226807 C-0.30000001192092896,-4.955999851226807 0.4959999918937683,-3.7780001163482666 0.4959999918937683,-3.7780001163482666 C1.1920000314712524,-2.75 1.1549999713897705,-1.5269999504089355 0.4000000059604645,-0.5230000019073486 C0.4000000059604645,-0.5230000019073486 -0.32499998807907104,0.4390000104904175 -0.32499998807907104,0.4390000104904175 C-1.1649999618530273,1.5570000410079956 -1.1920000314712524,2.9189999103546143 -0.3959999978542328,4.054999828338623 C-0.3959999978542328,4.054999828338623 0.23600000143051147,4.955999851226807 0.23600000143051147,4.955999851226807"></path></g></g><g transform="matrix(1,0,0,1,0,-0.8120002746582031)" opacity="1" style="display: block;"><g opacity="1" transform="matrix(1,0,0,1,37.529998779296875,30.513999938964844)"><path stroke-linecap="round" stroke-linejoin="round" fill-opacity="0" stroke="rgb(83,109,254)" stroke-opacity="1" stroke-width="1" d=" M-2.880000114440918,-4.992000102996826 C-2.880000114440918,-4.992000102996826 -1.4140000343322754,-4.992000102996826 -1.4140000343322754,-4.992000102996826 C1.343000054359436,-4.992000102996826 3.578000068664551,-2.756999969482422 3.578000068664551,0 C3.578000068664551,2.756999969482422 1.343000054359436,4.992000102996826 -1.4140000343322754,4.992000102996826 C-1.4140000343322754,4.992000102996826 -3.578000068664551,4.992000102996826 -3.578000068664551,4.992000102996826"></path></g></g><g transform="matrix(1,0,0,1,0,0)" opacity="1" style="display: block;"><g opacity="1" transform="matrix(1,0,0,1,14.300000190734863,36.685001373291016)"><path fill="rgb(255,255,255)" fill-opacity="1" d=" M7.889999866485596,0.7049999833106995 C7.889999866485596,2.555000066757202 5.860000133514404,4.054999828338623 3.3499999046325684,4.054999828338623 C1.3700000047683716,4.054999828338623 -0.3199999928474426,3.115000009536743 -0.9300000071525574,1.8049999475479126 C-2.1500000953674316,3.875 -4.329999923706055,4.855000019073486 -5.909999847412109,4.014999866485596 C-7.53000020980835,3.1449999809265137 -7.889999866485596,0.6449999809265137 -6.710000038146973,-1.565000057220459 C-5.53000020980835,-3.7750000953674316 -3.25,-4.855000019073486 -1.6200000047683716,-3.984999895095825 C-0.7400000095367432,-3.505000114440918 -0.23000000417232513,-2.5450000762939453 -0.14000000059604645,-1.4149999618530273 C0.6899999976158142,-2.1649999618530273 1.940000057220459,-2.634999990463257 3.3499999046325684,-2.634999990463257 C5.860000133514404,-2.634999990463257 7.889999866485596,-1.1449999809265137 7.889999866485596,0.7049999833106995z"></path><path stroke-linecap="round" stroke-linejoin="round" fill-opacity="0" stroke="rgb(0,0,0)" stroke-opacity="1" stroke-width="1" d=" M7.889999866485596,0.7049999833106995 C7.889999866485596,2.555000066757202 5.860000133514404,4.054999828338623 3.3499999046325684,4.054999828338623 C1.3700000047683716,4.054999828338623 -0.3199999928474426,3.115000009536743 -0.9300000071525574,1.8049999475479126 C-2.1500000953674316,3.875 -4.329999923706055,4.855000019073486 -5.909999847412109,4.014999866485596 C-7.53000020980835,3.1449999809265137 -7.889999866485596,0.6449999809265137 -6.710000038146973,-1.565000057220459 C-5.53000020980835,-3.7750000953674316 -3.25,-4.855000019073486 -1.6200000047683716,-3.984999895095825 C-0.7400000095367432,-3.505000114440918 -0.23000000417232513,-2.5450000762939453 -0.14000000059604645,-1.4149999618530273 C0.6899999976158142,-2.1649999618530273 1.940000057220459,-2.634999990463257 3.3499999046325684,-2.634999990463257 C5.860000133514404,-2.634999990463257 7.889999866485596,-1.1449999809265137 7.889999866485596,0.7049999833106995z"></path></g><g opacity="1" transform="matrix(1,0,0,1,0,0)"><path stroke-linecap="round" stroke-linejoin="round" fill-opacity="0" stroke="rgb(0,0,0)" stroke-opacity="1" stroke-width="1" d=" M22.18600082397461,37.391998291015625 C22.18600082397461,37.391998291015625 17.650999069213867,37.391998291015625 17.650999069213867,37.391998291015625"></path></g><g opacity="1" transform="matrix(1,0,0,1,9.121000289916992,39.345001220703125)"><path stroke-linecap="round" stroke-linejoin="round" fill-opacity="0" stroke="rgb(0,0,0)" stroke-opacity="1" stroke-width="1" d=" M-0.7260000109672546,1.3539999723434448 C-0.7260000109672546,1.3539999723434448 0.7260000109672546,-1.3539999723434448 0.7260000109672546,-1.3539999723434448"></path></g><g opacity="1" transform="matrix(1,0,0,1,13.77299976348877,36.880001068115234)"><path stroke-linecap="round" stroke-linejoin="round" fill-opacity="0" stroke="rgb(0,0,0)" stroke-opacity="1" stroke-width="1" d=" M-0.40299999713897705,1.6100000143051147 C-0.40299999713897705,1.6100000143051147 -0.08299999684095383,1.1039999723434448 0.1420000046491623,0.2680000066757202 C0.32899999618530273,-0.4309999942779541 0.40299999713897705,-1.190999984741211 0.3869999945163727,-1.6100000143051147"></path></g></g></g></svg>