<svg xmlns="http://www.w3.org/2000/svg" xmlns:xlink="http://www.w3.org/1999/xlink" viewBox="0 0 48 48" width="48" height="48" preserveAspectRatio="xMidYMid meet" style="width: 100%; height: 100%; transform: translate3d(0px, 0px, 0px); content-visibility: visible;"><defs><clipPath id="__lottie_element_1147"><rect width="48" height="48" x="0" y="0"></rect></clipPath></defs><g clip-path="url(#__lottie_element_1147)"><g transform="matrix(1.1504806280136108,0,0,1.1504806280136108,-3.6115341186523438,-3.6115341186523438)" opacity="1" style="display: block;"><g opacity="1" transform="matrix(1,0,0,1,16.375999450683594,16.499000549316406)"><path fill="rgb(255,255,255)" fill-opacity="1" d=" M2.134999990463257,4.322000026702881 C2.134999990463257,4.322000026702881 -2.134999990463257,4.322000026702881 -2.134999990463257,4.322000026702881 C-3.3429999351501465,4.322000026702881 -4.322000026702881,3.3429999351501465 -4.322000026702881,2.134999990463257 C-4.322000026702881,2.134999990463257 -4.322000026702881,-2.134999990463257 -4.322000026702881,-2.134999990463257 C-4.322000026702881,-3.3429999351501465 -3.3429999351501465,-4.322000026702881 -2.134999990463257,-4.322000026702881 C-2.134999990463257,-4.322000026702881 2.134999990463257,-4.322000026702881 2.134999990463257,-4.322000026702881 C3.3429999351501465,-4.322000026702881 4.322000026702881,-3.3429999351501465 4.322000026702881,-2.134999990463257 C4.322000026702881,-2.134999990463257 4.322000026702881,2.134999990463257 4.322000026702881,2.134999990463257 C4.322000026702881,3.3429999351501465 3.3429999351501465,4.322000026702881 2.134999990463257,4.322000026702881z"></path><path stroke-linecap="round" stroke-linejoin="round" fill-opacity="0" stroke="rgb(83,109,254)" stroke-opacity="1" stroke-width="1" d=" M2.134999990463257,4.322000026702881 C2.134999990463257,4.322000026702881 -2.134999990463257,4.322000026702881 -2.134999990463257,4.322000026702881 C-3.3429999351501465,4.322000026702881 -4.322000026702881,3.3429999351501465 -4.322000026702881,2.134999990463257 C-4.322000026702881,2.134999990463257 -4.322000026702881,-2.134999990463257 -4.322000026702881,-2.134999990463257 C-4.322000026702881,-3.3429999351501465 -3.3429999351501465,-4.322000026702881 -2.134999990463257,-4.322000026702881 C-2.134999990463257,-4.322000026702881 2.134999990463257,-4.322000026702881 2.134999990463257,-4.322000026702881 C3.3429999351501465,-4.322000026702881 4.322000026702881,-3.3429999351501465 4.322000026702881,-2.134999990463257 C4.322000026702881,-2.134999990463257 4.322000026702881,2.134999990463257 4.322000026702881,2.134999990463257 C4.322000026702881,3.3429999351501465 3.3429999351501465,4.322000026702881 2.134999990463257,4.322000026702881z"></path></g><g opacity="1" transform="matrix(1,0,0,1,29.259000778198242,18.86400032043457)"><path fill="rgb(255,255,255)" fill-opacity="1" d=" M0.8199999928474426,1.9579999446868896 C0.8199999928474426,1.9579999446868896 -0.8199999928474426,1.9579999446868896 -0.8199999928474426,1.9579999446868896 C-1.4479999542236328,1.9579999446868896 -1.9570000171661377,1.4479999542236328 -1.9570000171661377,0.8199999928474426 C-1.9570000171661377,0.8199999928474426 -1.9570000171661377,-0.8199999928474426 -1.9570000171661377,-0.8199999928474426 C-1.9570000171661377,-1.4490000009536743 -1.4479999542236328,-1.9579999446868896 -0.8199999928474426,-1.9579999446868896 C-0.8199999928474426,-1.9579999446868896 0.8199999928474426,-1.9579999446868896 0.8199999928474426,-1.9579999446868896 C1.4479999542236328,-1.9579999446868896 1.9570000171661377,-1.4490000009536743 1.9570000171661377,-0.8199999928474426 C1.9570000171661377,-0.8199999928474426 1.9570000171661377,0.8199999928474426 1.9570000171661377,0.8199999928474426 C1.9570000171661377,1.4479999542236328 1.4479999542236328,1.9579999446868896 0.8199999928474426,1.9579999446868896z"></path><path stroke-linecap="round" stroke-linejoin="round" fill-opacity="0" stroke="rgb(83,109,254)" stroke-opacity="1" stroke-width="1" d=" M0.8199999928474426,1.9579999446868896 C0.8199999928474426,1.9579999446868896 -0.8199999928474426,1.9579999446868896 -0.8199999928474426,1.9579999446868896 C-1.4479999542236328,1.9579999446868896 -1.9570000171661377,1.4479999542236328 -1.9570000171661377,0.8199999928474426 C-1.9570000171661377,0.8199999928474426 -1.9570000171661377,-0.8199999928474426 -1.9570000171661377,-0.8199999928474426 C-1.9570000171661377,-1.4490000009536743 -1.4479999542236328,-1.9579999446868896 -0.8199999928474426,-1.9579999446868896 C-0.8199999928474426,-1.9579999446868896 0.8199999928474426,-1.9579999446868896 0.8199999928474426,-1.9579999446868896 C1.4479999542236328,-1.9579999446868896 1.9570000171661377,-1.4490000009536743 1.9570000171661377,-0.8199999928474426 C1.9570000171661377,-0.8199999928474426 1.9570000171661377,0.8199999928474426 1.9570000171661377,0.8199999928474426 C1.9570000171661377,1.4479999542236328 1.4479999542236328,1.9579999446868896 0.8199999928474426,1.9579999446868896z"></path></g><g opacity="1" transform="matrix(1,0,0,1,31.624000549316406,31.542999267578125)"><path fill="rgb(255,255,255)" fill-opacity="1" d=" M-2.134999990463257,-4.322000026702881 C-2.134999990463257,-4.322000026702881 2.134999990463257,-4.322000026702881 2.134999990463257,-4.322000026702881 C3.3429999351501465,-4.322000026702881 4.322000026702881,-3.3429999351501465 4.322000026702881,-2.134999990463257 C4.322000026702881,-2.134999990463257 4.322000026702881,2.134999990463257 4.322000026702881,2.134999990463257 C4.322000026702881,3.3429999351501465 3.3429999351501465,4.322000026702881 2.134999990463257,4.322000026702881 C2.134999990463257,4.322000026702881 -2.134999990463257,4.322000026702881 -2.134999990463257,4.322000026702881 C-3.3429999351501465,4.322000026702881 -4.322000026702881,3.3429999351501465 -4.322000026702881,2.134999990463257 C-4.322000026702881,2.134999990463257 -4.322000026702881,-2.134999990463257 -4.322000026702881,-2.134999990463257 C-4.322000026702881,-3.3429999351501465 -3.3429999351501465,-4.322000026702881 -2.134999990463257,-4.322000026702881z"></path><path stroke-linecap="round" stroke-linejoin="round" fill-opacity="0" stroke="rgb(83,109,254)" stroke-opacity="1" stroke-width="1" d=" M-2.134999990463257,-4.322000026702881 C-2.134999990463257,-4.322000026702881 2.134999990463257,-4.322000026702881 2.134999990463257,-4.322000026702881 C3.3429999351501465,-4.322000026702881 4.322000026702881,-3.3429999351501465 4.322000026702881,-2.134999990463257 C4.322000026702881,-2.134999990463257 4.322000026702881,2.134999990463257 4.322000026702881,2.134999990463257 C4.322000026702881,3.3429999351501465 3.3429999351501465,4.322000026702881 2.134999990463257,4.322000026702881 C2.134999990463257,4.322000026702881 -2.134999990463257,4.322000026702881 -2.134999990463257,4.322000026702881 C-3.3429999351501465,4.322000026702881 -4.322000026702881,3.3429999351501465 -4.322000026702881,2.134999990463257 C-4.322000026702881,2.134999990463257 -4.322000026702881,-2.134999990463257 -4.322000026702881,-2.134999990463257 C-4.322000026702881,-3.3429999351501465 -3.3429999351501465,-4.322000026702881 -2.134999990463257,-4.322000026702881z"></path></g><g opacity="1" transform="matrix(1,0,0,1,18.740999221801758,29.17799949645996)"><path fill="rgb(255,255,255)" fill-opacity="1" d=" M-0.8199999928474426,-1.9579999446868896 C-0.8199999928474426,-1.9579999446868896 0.8199999928474426,-1.9579999446868896 0.8199999928474426,-1.9579999446868896 C1.4479999542236328,-1.9579999446868896 1.9570000171661377,-1.4479999542236328 1.9570000171661377,-0.8199999928474426 C1.9570000171661377,-0.8199999928474426 1.9570000171661377,0.8199999928474426 1.9570000171661377,0.8199999928474426 C1.9570000171661377,1.4490000009536743 1.4479999542236328,1.9579999446868896 0.8199999928474426,1.9579999446868896 C0.8199999928474426,1.9579999446868896 -0.8199999928474426,1.9579999446868896 -0.8199999928474426,1.9579999446868896 C-1.4479999542236328,1.9579999446868896 -1.9570000171661377,1.4490000009536743 -1.9570000171661377,0.8199999928474426 C-1.9570000171661377,0.8199999928474426 -1.9570000171661377,-0.8199999928474426 -1.9570000171661377,-0.8199999928474426 C-1.9570000171661377,-1.4479999542236328 -1.4479999542236328,-1.9579999446868896 -0.8199999928474426,-1.9579999446868896z"></path><path stroke-linecap="round" stroke-linejoin="round" fill-opacity="0" stroke="rgb(83,109,254)" stroke-opacity="1" stroke-width="1" d=" M-0.8199999928474426,-1.9579999446868896 C-0.8199999928474426,-1.9579999446868896 0.8199999928474426,-1.9579999446868896 0.8199999928474426,-1.9579999446868896 C1.4479999542236328,-1.9579999446868896 1.9570000171661377,-1.4479999542236328 1.9570000171661377,-0.8199999928474426 C1.9570000171661377,-0.8199999928474426 1.9570000171661377,0.8199999928474426 1.9570000171661377,0.8199999928474426 C1.9570000171661377,1.4490000009536743 1.4479999542236328,1.9579999446868896 0.8199999928474426,1.9579999446868896 C0.8199999928474426,1.9579999446868896 -0.8199999928474426,1.9579999446868896 -0.8199999928474426,1.9579999446868896 C-1.4479999542236328,1.9579999446868896 -1.9570000171661377,1.4490000009536743 -1.9570000171661377,0.8199999928474426 C-1.9570000171661377,0.8199999928474426 -1.9570000171661377,-0.8199999928474426 -1.9570000171661377,-0.8199999928474426 C-1.9570000171661377,-1.4479999542236328 -1.4479999542236328,-1.9579999446868896 -0.8199999928474426,-1.9579999446868896z"></path></g></g><g transform="matrix(1.0093618631362915,0,0,1.0093618631362915,-0.2246856689453125,-0.2246856689453125)" opacity="1" style="display: block;"><g opacity="1" transform="matrix(1,0,0,1,31.624000549316406,16.499000549316406)"><path stroke-linecap="round" stroke-linejoin="round" fill-opacity="0" stroke="rgb(83,109,254)" stroke-opacity="1" stroke-width="1" d=" M-4.322000026702881,-4.322000026702881 C-4.322000026702881,-4.322000026702881 2.880000114440918,-4.322000026702881 2.880000114440918,-4.322000026702881 C3.677000045776367,-4.322000026702881 4.322000026702881,-3.677000045776367 4.322000026702881,-2.880000114440918 C4.322000026702881,-2.880000114440918 4.322000026702881,4.322000026702881 4.322000026702881,4.322000026702881"></path></g><g opacity="1" transform="matrix(1,0,0,1,13.298999786376953,31.542999267578125)"><path stroke-linecap="round" stroke-linejoin="round" fill-opacity="0" stroke="rgb(83,109,254)" stroke-opacity="1" stroke-width="1" d=" M1.2450000047683716,4.322000026702881 C1.2450000047683716,4.322000026702881 0.1979999989271164,4.322000026702881 0.1979999989271164,4.322000026702881 C-0.5989999771118164,4.322000026702881 -1.2450000047683716,3.677000045776367 -1.2450000047683716,2.880000114440918 C-1.2450000047683716,2.880000114440918 -1.2450000047683716,-4.322000026702881 -1.2450000047683716,-4.322000026702881"></path></g><g opacity="1" transform="matrix(1,0,0,1,0,0)"><path stroke-linecap="round" stroke-linejoin="round" fill-opacity="0" stroke="rgb(83,109,254)" stroke-opacity="1" stroke-width="1" d=" M20.698999404907227,35.8650016784668 C20.698999404907227,35.8650016784668 18.393999099731445,35.8650016784668 18.393999099731445,35.8650016784668"></path></g><g opacity="1" transform="matrix(1,0,0,1,0,0)"><path stroke-linecap="round" stroke-linejoin="round" fill-opacity="0" stroke="rgb(83,109,254)" stroke-opacity="1" stroke-width="1" d=" M19.46299934387207,24.066999435424805 C19.46299934387207,24.066999435424805 27.804000854492188,24.066999435424805 27.804000854492188,24.066999435424805"></path></g><g opacity="1" transform="matrix(1,0,0,1,0,0)"><path stroke-linecap="round" stroke-linejoin="round" fill-opacity="0" stroke="rgb(83,109,254)" stroke-opacity="1" stroke-width="1" d=" M23.95400047302246,26.594999313354492 C23.95400047302246,26.594999313354492 23.95400047302246,31.29599952697754 23.95400047302246,31.29599952697754"></path></g><g opacity="1" transform="matrix(1,0,0,1,0,0)"><path stroke-linecap="round" stroke-linejoin="round" fill-opacity="0" stroke="rgb(83,109,254)" stroke-opacity="1" stroke-width="1" d=" M23.95400047302246,16.21299934387207 C23.95400047302246,16.21299934387207 23.95400047302246,20.913999557495117 23.95400047302246,20.913999557495117"></path></g></g><g transform="matrix(1,0,0,1,0,0)" opacity="1" style="display: block;"><g opacity="1" transform="matrix(1,0,0,1,11.395000457763672,11.343999862670898)"><path stroke-linecap="round" stroke-linejoin="round" fill-opacity="0" stroke="rgb(0,0,0)" stroke-opacity="1" stroke-width="1" d=" M4.38100004196167,-4.38100004196167 C4.38100004196167,-4.38100004196167 -1.2790000438690186,-4.38100004196167 -1.2790000438690186,-4.38100004196167 C-2.992000102996826,-4.38100004196167 -4.38100004196167,-2.992000102996826 -4.38100004196167,-1.2790000438690186 C-4.38100004196167,-1.2790000438690186 -4.38100004196167,4.38100004196167 -4.38100004196167,4.38100004196167"></path></g><g opacity="1" transform="matrix(1,0,0,1,36.60499954223633,11.343999862670898)"><path stroke-linecap="round" stroke-linejoin="round" fill-opacity="0" stroke="rgb(0,0,0)" stroke-opacity="1" stroke-width="1" d=" M-4.38100004196167,-4.38100004196167 C-4.38100004196167,-4.38100004196167 1.2790000438690186,-4.38100004196167 1.2790000438690186,-4.38100004196167 C2.992000102996826,-4.38100004196167 4.38100004196167,-2.992000102996826 4.38100004196167,-1.2790000438690186 C4.38100004196167,-1.2790000438690186 4.38100004196167,4.38100004196167 4.38100004196167,4.38100004196167"></path></g><g opacity="1" transform="matrix(1,0,0,1,36.60499954223633,36.65599822998047)"><path stroke-linecap="round" stroke-linejoin="round" fill-opacity="0" stroke="rgb(0,0,0)" stroke-opacity="1" stroke-width="1" d=" M-4.38100004196167,4.38100004196167 C-4.38100004196167,4.38100004196167 1.2790000438690186,4.38100004196167 1.2790000438690186,4.38100004196167 C2.992000102996826,4.38100004196167 4.38100004196167,2.992000102996826 4.38100004196167,1.2790000438690186 C4.38100004196167,1.2790000438690186 4.38100004196167,-4.38100004196167 4.38100004196167,-4.38100004196167"></path></g><g opacity="1" transform="matrix(1,0,0,1,11.395000457763672,36.65599822998047)"><path stroke-linecap="round" stroke-linejoin="round" fill-opacity="0" stroke="rgb(0,0,0)" stroke-opacity="1" stroke-width="1" d=" M4.38100004196167,4.38100004196167 C4.38100004196167,4.38100004196167 -1.2790000438690186,4.38100004196167 -1.2790000438690186,4.38100004196167 C-2.992000102996826,4.38100004196167 -4.38100004196167,2.992000102996826 -4.38100004196167,1.2790000438690186 C-4.38100004196167,1.2790000438690186 -4.38100004196167,-4.38100004196167 -4.38100004196167,-4.38100004196167"></path></g><g opacity="1" transform="matrix(1,0,0,1,0,0)"><path stroke-linecap="round" stroke-linejoin="round" fill-opacity="0" stroke="rgb(0,0,0)" stroke-opacity="1" stroke-width="1" d=" M31.652999877929688,24.066999435424805 C31.652999877929688,24.066999435424805 35.94599914550781,24.066999435424805 35.94599914550781,24.066999435424805"></path></g><g opacity="1" transform="matrix(1,0,0,1,0,0)"><path stroke-linecap="round" stroke-linejoin="round" fill-opacity="0" stroke="rgb(0,0,0)" stroke-opacity="1" stroke-width="1" d=" M12.053999900817871,24.066999435424805 C12.053999900817871,24.066999435424805 16.347000122070312,24.066999435424805 16.347000122070312,24.066999435424805"></path></g><g opacity="1" transform="matrix(1,0,0,1,0,0)"><path stroke-linecap="round" stroke-linejoin="round" fill-opacity="0" stroke="rgb(0,0,0)" stroke-opacity="1" stroke-width="1" d=" M23.95400047302246,12.177000045776367 C23.95400047302246,12.177000045776367 23.95400047302246,13.802000045776367 23.95400047302246,13.802000045776367"></path></g><g opacity="1" transform="matrix(1,0,0,1,0,0)"><path stroke-linecap="round" stroke-linejoin="round" fill-opacity="0" stroke="rgb(0,0,0)" stroke-opacity="1" stroke-width="1" d=" M23.95400047302246,34.487998962402344 C23.95400047302246,34.487998962402344 23.95400047302246,36.112998962402344 23.95400047302246,36.112998962402344"></path></g></g></g></svg>